<svg width="24" height="25" viewBox="0 0 24 25" fill="none" xmlns="http://www.w3.org/2000/svg">
<path fill-rule="evenodd" clip-rule="evenodd" d="M16.8423 7.04784C15.6033 5.86614 13.9498 5.22238 12.239 5.24884C9.10839 5.24884 6.44957 7.36089 5.50155 10.2049V10.205C4.99889 11.6953 4.99889 13.3091 5.50155 14.7995H5.50595C6.45837 17.6391 9.11279 19.7512 12.2434 19.7512C13.8594 19.7512 15.2468 19.3378 16.3221 18.6077V18.6047C17.5875 17.767 18.4518 16.4486 18.7207 14.9582H12.239V10.3372H23.5578C23.6989 11.1397 23.765 11.9599 23.765 12.7756C23.765 16.4255 22.4606 19.5112 20.1911 21.6012L20.1934 21.6031C18.2048 23.4374 15.4755 24.5 12.239 24.5C7.7018 24.5 3.55262 21.9426 1.5155 17.8904V17.8904C-0.186487 14.4996 -0.186483 10.5048 1.51552 7.11401H1.51554L1.5155 7.11398C3.55261 3.0574 7.7018 0.499985 12.239 0.499985C15.2197 0.46471 18.099 1.58468 20.2684 3.62179L16.8423 7.04784Z" fill="white" style="fill:white;fill-opacity:1;"/>
</svg>
